<svg width="121" height="121" viewBox="0 0 121 121" fill="none" xmlns="http://www.w3.org/2000/svg">
<path opacity="0.1" d="M60.0508 120.98C93.1879 120.98 120.051 94.1176 120.051 60.9805C120.051 27.8434 93.1879 0.980469 60.0508 0.980469C26.9137 0.980469 0.0507812 27.8434 0.0507812 60.9805C0.0507812 94.1176 26.9137 120.98 60.0508 120.98Z" fill="#8CC63E"/>
<path d="M14.271 85.8748C14.271 80.6131 19.3327 76.3477 25.5767 76.3477H45.9269C52.1708 76.3477 57.2325 80.6131 57.2325 85.8748V93.9729H14.271V85.8748Z" fill="white"/>
<path d="M38.0958 37.0376C38.0958 40.2707 35.4748 42.8917 32.2417 42.8917C29.0086 42.8917 26.3877 40.2707 26.3877 37.0376C26.3877 33.8045 29.0086 31.1836 32.2417 31.1836C35.4748 31.1836 38.0958 33.8045 38.0958 37.0376Z" fill="white"/>
<path d="M50.623 53.7659C50.623 63.8042 43.4717 71.9419 34.6501 71.9419C25.8285 71.9419 18.6772 63.8042 18.6772 53.7659C18.6772 43.7275 25.8285 35.5898 34.6501 35.5898C43.4717 35.5898 50.623 43.7275 50.623 53.7659Z" fill="white"/>
<path fill-rule="evenodd" clip-rule="evenodd" d="M26.1917 42.1913C24.1161 44.4782 22.9135 47.2818 22.3152 49.2459C22.0737 50.0384 21.2356 50.4851 20.4431 50.2437C19.6507 50.0022 19.204 49.1641 19.4454 48.3716C20.12 46.1573 21.4951 42.9022 23.9702 40.1751C26.4783 37.4117 30.124 35.1914 35.2008 35.1914C36.0292 35.1914 36.7008 35.863 36.7008 36.6914C36.7008 37.5198 36.0292 38.1914 35.2008 38.1914C31.1125 38.1914 28.2344 39.9406 26.1917 42.1913Z" fill="#E6F5E0"/>
<path fill-rule="evenodd" clip-rule="evenodd" d="M43.5168 41.7332C45.3686 43.7624 46.4112 46.2786 46.9857 48.1478C47.2291 48.9397 48.0683 49.3844 48.8602 49.141C49.652 48.8976 50.0967 48.0584 49.8533 47.2665C49.2172 45.1966 48.0086 42.2048 45.7327 39.711C43.4166 37.173 40.0256 35.1914 35.2006 35.1914C34.3722 35.1914 33.7006 35.863 33.7006 36.6914C33.7006 37.5198 34.3722 38.1914 35.2006 38.1914C39.0921 38.1914 41.7052 39.7481 43.5168 41.7332Z" fill="#E6F5E0"/>
<path fill-rule="evenodd" clip-rule="evenodd" d="M28.2326 36.4843C26.9573 37.9378 26.1016 38.4403 25.7102 39.4878C25.5597 39.8906 25.1072 40.0966 24.6996 39.9479C24.2919 39.7991 24.0835 39.352 24.234 38.9491C24.6819 37.7503 25.6738 35.8516 27.0895 34.2381C28.4916 32.6399 30.4343 31.1836 32.7879 31.1836C35.1035 31.1836 36.9509 32.4191 38.2499 33.8251C39.5447 35.2268 40.3849 36.8911 40.6815 37.9795C40.7944 38.3942 40.5459 38.8209 40.1263 38.9325C39.7067 39.0442 39.2749 38.7985 39.1619 38.3838C38.9339 37.5469 37.9111 36.4884 36.7773 35.2611C35.6476 34.0382 34.8924 33.6301 33.1795 33.6301C31.5046 33.6301 29.7752 34.726 28.2326 36.4843Z" fill="#E6F5E0"/>
<path fill-rule="evenodd" clip-rule="evenodd" d="M35.458 44.071L36.203 45.0762C38.5804 48.2837 43.6481 50.3785 49.6057 49.9539C50.0382 49.923 50.411 50.2337 50.4385 50.6478C50.466 51.0619 50.1377 51.4225 49.7052 51.4533C43.9012 51.867 38.664 50.054 35.6908 46.8779C34.2946 49.2978 32.5356 51.556 29.4414 52.9045C27.8379 53.6033 25.784 53.7567 24.0723 53.6269C23.2075 53.5613 22.3939 53.4209 21.7301 53.2223C21.3984 53.123 21.0886 53.0046 20.8228 52.8647C20.5662 52.7297 20.3005 52.5487 20.112 52.3026C19.857 51.9695 19.9342 51.4985 20.2846 51.2506C20.6349 51.0026 21.1257 51.0715 21.3807 51.4045C21.3807 51.4045 21.3922 51.4182 21.4258 51.4438C21.462 51.4714 21.5153 51.5059 21.5897 51.545C21.7398 51.624 21.9477 51.7073 22.2127 51.7866C22.7421 51.945 23.437 52.0691 24.2129 52.128C25.7824 52.247 27.5378 52.089 28.8046 51.5369C31.8192 50.2231 33.4026 47.9053 34.8645 45.1781L35.458 44.071Z" fill="#E6F5E0"/>
<path d="M31.896 71.9414H38.5055V76.3477H31.896V71.9414Z" fill="white"/>
<path fill-rule="evenodd" clip-rule="evenodd" d="M34.9324 70.5598C42.8653 70.5598 49.6472 63.1605 49.6472 53.5741C49.6472 43.9876 42.8653 36.5883 34.9324 36.5883C26.9995 36.5883 20.2176 43.9876 20.2176 53.5741C20.2176 63.1605 26.9995 70.5598 34.9324 70.5598ZM34.9324 72.0368C43.8856 72.0368 51.1436 63.7708 51.1436 53.5741C51.1436 43.3774 43.8856 35.1113 34.9324 35.1113C25.9792 35.1113 18.7212 43.3774 18.7212 53.5741C18.7212 63.7708 25.9792 72.0368 34.9324 72.0368Z" fill="#666666"/>
<path fill-rule="evenodd" clip-rule="evenodd" d="M34.9324 70.3098C42.6985 70.3098 49.3972 63.053 49.3972 53.5741C49.3972 44.0951 42.6985 36.8383 34.9324 36.8383C27.1663 36.8383 20.4676 44.0951 20.4676 53.5741C20.4676 63.053 27.1663 70.3098 34.9324 70.3098ZM51.3936 53.5741C51.3936 63.8773 44.0532 72.2868 34.9324 72.2868C25.8116 72.2868 18.4712 63.8773 18.4712 53.5741C18.4712 43.2708 25.8116 34.8613 34.9324 34.8613C44.0532 34.8613 51.3936 43.2708 51.3936 53.5741ZM49.6472 53.5741C49.6472 63.1605 42.8653 70.5598 34.9324 70.5598C26.9995 70.5598 20.2176 63.1605 20.2176 53.5741C20.2176 43.9876 26.9995 36.5883 34.9324 36.5883C42.8653 36.5883 49.6472 43.9876 49.6472 53.5741ZM51.1436 53.5741C51.1436 63.7708 43.8856 72.0368 34.9324 72.0368C25.9792 72.0368 18.7212 63.7708 18.7212 53.5741C18.7212 43.3774 25.9792 35.1113 34.9324 35.1113C43.8856 35.1113 51.1436 43.3774 51.1436 53.5741Z" fill="#666666"/>
<path d="M31.7851 56.727C31.7851 57.7218 30.9787 58.5283 29.9839 58.5283C28.9891 58.5283 28.1826 57.7218 28.1826 56.727C28.1826 55.7322 28.9891 54.9258 29.9839 54.9258C30.9787 54.9258 31.7851 55.7322 31.7851 56.727Z" fill="#666666"/>
<path d="M43.7373 56.727C43.7373 57.7218 42.9308 58.5283 41.936 58.5283C40.9412 58.5283 40.1348 57.7218 40.1348 56.727C40.1348 55.7322 40.9412 54.9258 41.936 54.9258C42.9308 54.9258 43.7373 55.7322 43.7373 56.727Z" fill="#666666"/>
<path fill-rule="evenodd" clip-rule="evenodd" d="M27.5439 35.0176C26.4878 36.7209 25.846 38.6603 25.6118 39.8126C25.5217 40.2557 25.1007 40.5359 24.6714 40.4383C24.242 40.3408 23.967 39.9025 24.0571 39.4593C24.3251 38.1406 25.0318 36.0117 26.2043 34.1208C27.3655 32.248 29.0877 30.4465 31.438 30.1108C33.7505 29.7805 35.78 30.8102 37.2874 32.0966C38.79 33.3791 39.8779 35.0013 40.3368 36.0983C40.5116 36.5163 40.3272 36.9983 39.9248 37.175C39.5225 37.3518 39.0546 37.1562 38.8798 36.7383C38.527 35.8947 37.5993 34.4829 36.2836 33.3599C34.9726 32.2411 33.381 31.4942 31.6705 31.7386C29.9979 31.9775 28.6113 33.2961 27.5439 35.0176Z" fill="#666666"/>
<path fill-rule="evenodd" clip-rule="evenodd" d="M27.7564 35.1486C26.718 36.8232 26.086 38.7341 25.8568 39.8616C25.7401 40.4359 25.1884 40.8115 24.616 40.6814C24.0483 40.5524 23.6962 39.979 23.8121 39.4088C24.0852 38.0654 24.8016 35.9079 25.9918 33.9883C27.1665 32.0938 28.9419 30.214 31.4027 29.8625C33.8135 29.5182 35.913 30.5942 37.4497 31.9057C38.9811 33.2127 40.0929 34.8667 40.5674 36.0011C40.7921 36.5383 40.5589 37.1689 40.0254 37.4032C39.4883 37.6391 38.8751 37.3741 38.6492 36.834C38.312 36.0279 37.4083 34.6477 36.1213 33.5494C34.84 32.4558 33.3183 31.755 31.7059 31.9853C30.1435 32.2085 28.8101 33.4492 27.7564 35.1486ZM25.6118 39.8118C25.846 38.6596 26.4878 36.7202 27.5439 35.0168C28.6113 33.2954 29.9979 31.9768 31.6705 31.7378C33.381 31.4935 34.9726 32.2403 36.2836 33.3592C37.5993 34.4821 38.527 35.894 38.8798 36.7375C39.0546 37.1555 39.5225 37.351 39.9248 37.1743C40.3272 36.9976 40.5116 36.5155 40.3368 36.0976C39.8779 35.0006 38.79 33.3783 37.2874 32.0959C35.78 30.8094 33.7505 29.7797 31.438 30.11C29.0877 30.4458 27.3655 32.2473 26.2043 34.1201C25.0318 36.011 24.3251 38.1398 24.0571 39.4586C23.967 39.9017 24.242 40.3401 24.6714 40.4376C25.1007 40.5352 25.5217 40.255 25.6118 39.8118Z" fill="#666666"/>
<path fill-rule="evenodd" clip-rule="evenodd" d="M19.3409 64.5204C19.1247 63.6432 19.1529 62.7197 19.2443 62.1289L19.9843 62.2659C19.9063 62.7695 19.8838 63.5696 20.0655 64.3067C20.2461 65.0395 20.6103 65.6506 21.2684 65.9164C22.0738 66.2418 22.656 66.443 23.0538 66.5623C23.2528 66.6219 23.4035 66.6604 23.5114 66.6837C23.5653 66.6953 23.6067 66.7027 23.6369 66.7071C23.6632 66.7109 23.6759 66.7116 23.6784 66.7118C23.679 66.7118 23.679 66.7118 23.6786 66.7118V67.5326C23.5367 67.5326 23.2622 67.4758 22.8554 67.3539C22.4319 67.2269 21.8286 67.0177 21.0084 66.6864C20.0407 66.2956 19.5582 65.4019 19.3409 64.5204Z" fill="#666666"/>
<path fill-rule="evenodd" clip-rule="evenodd" d="M31.6789 63.1448C32.0383 62.9378 32.5239 63.0217 32.7635 63.3321C32.9119 63.5243 33.313 63.7963 33.9889 64.0226C34.6386 64.2401 35.4465 64.3822 36.284 64.3822C37.1193 64.3822 37.8978 64.2408 38.5327 64.0242C39.18 63.8033 39.6234 63.5236 39.8445 63.2848C40.1144 62.9935 40.6066 62.9463 40.9438 63.1793C41.2811 63.4124 41.3358 63.8374 41.066 64.1287C40.6198 64.6104 39.9118 65.0061 39.1075 65.2806C38.2908 65.5593 37.3174 65.7331 36.284 65.7331C35.2528 65.7331 34.2532 65.56 33.4235 65.2822C32.6199 65.0131 31.8698 64.6097 31.462 64.0814C31.2224 63.7711 31.3195 63.3517 31.6789 63.1448Z" fill="#666666"/>
<path fill-rule="evenodd" clip-rule="evenodd" d="M21.901 76.7779C20.2602 77.2197 19.4027 77.9469 17.5679 79.8268C16.9809 80.4282 16.4537 81.4247 16.0174 82.7181C15.5865 83.9955 15.2679 85.4898 15.0544 87.0184C14.6247 90.0951 14.6372 93.1843 14.9454 94.7759L13.3028 95.0745C12.949 93.2473 12.956 89.9678 13.3983 86.8012C13.6208 85.2082 13.9575 83.6122 14.4289 82.2149C14.8948 80.8338 15.5169 79.5714 16.3537 78.714C18.2071 76.8151 19.3355 75.7879 21.4536 75.2176C22.4682 74.9444 23.6911 74.7791 25.2995 74.6307C26.4189 74.5275 27.7542 74.4302 29.3658 74.3127C30.072 74.2613 30.8311 74.2059 31.6485 74.1445L31.5508 75.9799C30.7196 76.0423 30.2178 75.9291 29.667 75.9291C28.0659 76.0458 26.5601 76.1413 25.4578 76.2429C23.8658 76.3898 22.7659 76.545 21.901 76.7779Z" fill="#666666"/>
<path fill-rule="evenodd" clip-rule="evenodd" d="M31.7808 74.0098L31.6698 76.0968L31.5601 76.105C31.1365 76.1369 30.7968 76.1239 30.4951 76.1032C30.4133 76.0975 30.3351 76.0914 30.2593 76.0855C30.0546 76.0695 29.867 76.0549 29.6715 76.0547C29.1971 76.0892 28.7315 76.1219 28.2825 76.1534C27.2159 76.2283 26.2432 76.2965 25.4693 76.3679C23.8784 76.5147 22.7874 76.6692 21.9335 76.8991C20.3278 77.3315 19.4905 78.0364 17.6574 79.9146C17.0896 80.4964 16.5698 81.4722 16.1358 82.7586C15.7081 84.0265 15.391 85.5128 15.1782 87.0362C14.7495 90.1058 14.7636 93.1798 15.0681 94.7526L15.0921 94.8768L13.2036 95.2201L13.1801 95.0988C12.8227 93.2528 12.8312 89.9582 13.2745 86.7845C13.4977 85.1863 13.8358 83.5823 14.3104 82.1755C14.7788 80.7873 15.4082 79.5043 16.2642 78.6272C18.1194 76.7266 19.268 75.6772 21.4211 75.0974C22.4466 74.8213 23.6784 74.6553 25.288 74.5068C26.4086 74.4034 27.7449 74.306 29.3556 74.1887L29.3568 74.1886C30.0629 74.1371 30.8219 74.0818 31.6391 74.0204L31.7808 74.0098ZM29.3749 74.4379C27.7628 74.5554 26.4289 74.6526 25.3109 74.7557C23.7038 74.904 22.4898 75.0685 21.4861 75.3388C19.403 75.8997 18.2948 76.9047 16.4432 78.8018C15.6255 79.6396 15.0108 80.8814 14.5473 82.2554C14.0791 83.6432 13.7438 85.2311 13.5221 86.819C13.0905 89.9089 13.0758 93.0991 13.4029 94.9298L14.7997 94.6758C14.5106 93.0337 14.5108 90.0079 14.9306 87.0017C15.1448 85.4679 15.4648 83.9655 15.899 82.6787C16.3377 81.3782 16.8723 80.3611 17.4785 79.74C19.3149 77.8585 20.1926 77.109 21.8685 76.6577C22.7443 76.4219 23.8531 76.2659 25.4463 76.119C26.2231 76.0473 27.2003 75.9788 28.2684 75.9038C28.7182 75.8722 29.1841 75.8395 29.6579 75.805L29.667 75.8043C29.8747 75.8043 30.0775 75.8205 30.2871 75.8369C30.3611 75.8427 30.436 75.8485 30.5123 75.8537C30.7801 75.8721 31.0745 75.884 31.4318 75.8631L31.5161 74.2803C30.7525 74.3375 30.04 74.3894 29.3749 74.4379Z" fill="#666666"/>
<path fill-rule="evenodd" clip-rule="evenodd" d="M51.8311 77.6135C52.5641 78.0807 53.2887 78.7444 54.2393 79.7573C54.8931 80.4539 55.4737 81.5166 55.9534 82.8307C56.4285 84.1321 56.7847 85.624 57.026 87.1355C57.5117 90.1791 57.5143 93.1909 57.1518 94.7848L59.1459 95.0745C59.5611 93.2488 59.5345 90.0514 59.0364 86.9306C58.7858 85.3599 58.4115 83.7809 57.899 82.377C57.3912 80.9858 56.7272 79.7087 55.8607 78.7854C54.8871 77.748 54.0371 76.9477 53.0948 76.3471C52.1284 75.7312 51.1039 75.349 49.82 75.0919C48.5662 74.8408 47.0517 74.707 45.1112 74.5844C44.2768 74.5317 43.3505 74.4804 42.3213 74.4234C42.1466 74.4137 41.969 74.4039 41.7883 74.3938C40.5409 74.3245 39.5326 74.2454 37.9548 74.1445V76.0181C39.5433 76.1197 40.5102 76.0407 41.7427 76.1092C41.9245 76.1193 42.1159 76.0995 42.2909 76.1092C43.3209 76.1662 44.1277 76.1471 44.9515 76.1992C46.8905 76.3217 48.2541 76.4482 49.3274 76.6631C50.3706 76.8721 51.1221 77.1616 51.8311 77.6135Z" fill="#666666"/>
<path fill-rule="evenodd" clip-rule="evenodd" d="M37.8298 74.0117V76.1358L37.9468 76.1433C38.7449 76.1943 39.3868 76.2 39.982 76.2015C40.0411 76.2017 40.0997 76.2018 40.1579 76.2019C40.6866 76.2029 41.1844 76.2038 41.7358 76.2344C41.8327 76.2398 41.9311 76.2372 42.0227 76.2347C42.1163 76.2322 42.2025 76.2299 42.2839 76.2344C42.8014 76.2631 43.2626 76.2726 43.696 76.2815L43.7018 76.2816C44.1335 76.2904 44.5367 76.2987 44.9436 76.3244C46.8826 76.4469 48.2387 76.573 49.3028 76.7861C50.3341 76.9927 51.0705 77.2774 51.7639 77.7194C52.4836 78.178 53.1996 78.8325 54.1482 79.8433C54.7857 80.5226 55.3591 81.5677 55.836 82.874C56.3076 84.1661 56.6622 85.6499 56.9025 87.1556C57.3871 90.1918 57.3874 93.1857 57.0299 94.7576L56.9999 94.8895L59.2422 95.2152L59.2678 95.1027C59.688 93.2549 59.6591 90.0395 59.1599 86.9113C58.9083 85.3349 58.5324 83.7478 58.0165 82.3346C57.5057 80.9355 56.8345 79.6408 55.9519 78.7003C54.9762 77.6607 54.1176 76.8512 53.162 76.2421C52.1801 75.6163 51.1404 75.2293 49.8446 74.9698C48.5816 74.7168 47.0596 74.5827 45.1191 74.4601C44.2841 74.4073 43.3575 74.356 42.3285 74.299L41.7952 74.2695C41.0413 74.2276 40.3757 74.1822 39.618 74.1305C39.1225 74.0967 38.5875 74.0602 37.9628 74.0202L37.8298 74.0117ZM39.5986 74.3797C40.3579 74.4315 41.0263 74.4771 41.7814 74.5191L42.3144 74.5486C43.3437 74.6056 44.2695 74.6569 45.1033 74.7096C47.0437 74.8322 48.5507 74.9656 49.7955 75.2149C51.0675 75.4696 52.0768 75.8469 53.0276 76.4529C53.9565 77.045 54.7981 77.8362 55.7696 78.8714C56.6198 79.7773 57.2766 81.0369 57.7816 82.4203C58.2907 83.8148 58.6632 85.3857 58.913 86.9507C59.3997 90.0002 59.433 93.1132 59.0487 94.9345L57.3023 94.6808C57.6406 93.0355 57.6233 90.0859 57.1494 87.1162C56.9073 85.5991 56.5493 84.099 56.0708 82.7882C55.5882 81.4663 55.0005 80.3861 54.3305 79.6722C53.3778 78.6571 52.6447 77.9843 51.8983 77.5085C51.1737 77.0467 50.407 76.7523 49.3519 76.541C48.2696 76.3243 46.8984 76.1974 44.9594 76.0749C44.5471 76.0488 44.1394 76.0405 43.7096 76.0317L43.7011 76.0315C43.2675 76.0227 42.8103 76.0132 42.2978 75.9848C42.206 75.9797 42.1109 75.9823 42.0212 75.9847L42.016 75.9848C41.9227 75.9873 41.8346 75.9895 41.7497 75.9848C41.1912 75.9538 40.6867 75.9529 40.1588 75.9519C40.1004 75.9518 40.0417 75.9517 39.9826 75.9515C39.4186 75.9501 38.8164 75.9449 38.0798 75.901V74.2783C38.6456 74.3147 39.1388 74.3484 39.5986 74.3797Z" fill="#666666"/>
<path fill-rule="evenodd" clip-rule="evenodd" d="M20.7815 92.8887C21.0661 92.8887 21.2969 93.0425 21.2969 93.2323V95.6374C21.2969 95.8271 21.0661 95.981 20.7815 95.981C20.4969 95.981 20.2661 95.8271 20.2661 95.6374V93.2323C20.2661 93.0425 20.4969 92.8887 20.7815 92.8887Z" fill="#666666"/>
<path fill-rule="evenodd" clip-rule="evenodd" d="M52.7356 92.8887C53.0202 92.8887 53.251 93.0425 53.251 93.2323V95.6374C53.251 95.8271 53.0202 95.981 52.7356 95.981C52.451 95.981 52.2202 95.8271 52.2202 95.6374V93.2323C52.2202 93.0425 52.451 92.8887 52.7356 92.8887Z" fill="#666666"/>
<path fill-rule="evenodd" clip-rule="evenodd" d="M36.1002 43.311L36.5244 43.7908C37.9106 45.3587 40.6116 47.5476 43.7973 48.7434C46.9696 49.9342 50.5586 50.1225 53.8427 47.8205C54.07 47.6612 54.3872 47.7077 54.5513 47.9244C54.7153 48.1411 54.6641 48.4459 54.4368 48.6052C50.7831 51.1662 46.8004 50.9195 43.4205 49.6508C40.358 48.5012 37.738 46.498 36.1801 44.8905C34.4069 47.2913 32.5779 49.4734 29.2988 51.2671C27.4415 52.2832 25.3159 52.2311 23.5892 51.8335C22.7208 51.6335 21.9351 51.3424 21.3071 51.0385C20.6938 50.7416 20.1854 50.4106 19.9107 50.1106C19.7265 49.9094 19.7485 49.6016 19.9598 49.4232C20.171 49.2447 20.4916 49.2631 20.6758 49.4643C20.823 49.6251 21.1945 49.8894 21.7704 50.1682C22.3316 50.4398 23.0442 50.7045 23.8341 50.8864C25.4241 51.2525 27.2552 51.2682 28.8018 50.4221C32.1018 48.6169 33.8422 46.4077 35.7212 43.8308L36.1002 43.311Z" fill="#666666"/>
<path fill-rule="evenodd" clip-rule="evenodd" d="M36.0627 42.5151L36.8989 43.461C38.2397 44.9776 40.8751 47.1139 43.9729 48.2767C47.0453 49.43 50.4481 49.5907 53.5557 47.4125C53.9956 47.1041 54.6178 47.1855 54.9498 47.624C55.2911 48.0748 55.1745 48.7001 54.7238 49.016C50.8931 51.7011 46.7241 51.4264 43.2447 50.1203C40.3581 49.0367 37.8629 47.2203 36.2361 45.6534C34.5453 47.8988 32.6955 49.9803 29.5387 51.7072C27.5333 52.8042 25.2686 52.7347 23.477 52.3221C22.5709 52.1135 21.7498 51.8097 21.0892 51.4899C20.4583 51.1845 19.8812 50.8203 19.5418 50.4496C19.1613 50.0339 19.2142 49.3998 19.6371 49.0426C20.0487 48.6949 20.675 48.7245 21.0445 49.1281C21.1269 49.2181 21.4296 49.4492 21.9882 49.7195C22.5168 49.9753 23.194 50.2273 23.9462 50.4005C25.4709 50.7516 27.163 50.75 28.5618 49.9849C31.7607 48.235 33.4475 46.1017 35.3172 43.5376L35.7212 43.8322C33.8421 46.4091 32.1017 48.6183 28.8018 50.4235C27.2551 51.2696 25.424 51.2539 23.834 50.8878C23.0442 50.7059 22.3316 50.4412 21.7704 50.1696C21.1945 49.8908 20.8229 49.6265 20.6757 49.4657C20.4915 49.2645 20.171 49.2461 19.9597 49.4246C19.7484 49.603 19.7265 49.9108 19.9106 50.112C20.1853 50.412 20.6938 50.743 21.3071 51.0399C21.935 51.3438 22.7207 51.6349 23.5892 51.8349C25.3158 52.2325 27.4414 52.2846 29.2987 51.2686C32.3919 49.5765 34.1948 47.5389 35.8777 45.298C35.9788 45.1634 36.0795 45.028 36.1801 44.8919C36.2937 45.0091 36.4129 45.1284 36.5376 45.2494C38.1224 46.787 40.5813 48.5864 43.4204 49.6522C46.8003 50.9209 50.7831 51.1676 54.4368 48.6066C54.664 48.4473 54.7152 48.1425 54.5512 47.9258C54.3871 47.7092 54.0699 47.6626 53.8427 47.8219C50.5585 50.1239 46.9696 49.9356 43.7972 48.7448C40.6115 47.549 37.9105 45.3602 36.5243 43.7922L36.1002 43.3124L35.7212 43.8322L35.3172 43.5376L36.0627 42.5151Z" fill="#666666"/>
<path d="M24.1851 66.9844C24.1851 66.0718 24.9777 65.332 25.9555 65.332H27.9226C28.9003 65.332 29.6929 66.0718 29.6929 66.9844C29.6929 67.897 28.9003 68.6368 27.9226 68.6368H25.9555C24.9777 68.6368 24.1851 67.897 24.1851 66.9844Z" fill="#E6F5E0"/>
<path fill-rule="evenodd" clip-rule="evenodd" d="M28.1127 65.8327H25.5395C24.8289 65.8327 24.2529 66.3928 24.2529 67.0836C24.2529 67.7744 24.8289 68.3344 25.5395 68.3344H28.1127C28.8233 68.3344 29.3993 67.7744 29.3993 67.0836C29.3993 66.3928 28.8233 65.8327 28.1127 65.8327ZM25.5395 64.832C24.2605 64.832 23.2236 65.8401 23.2236 67.0836C23.2236 68.3271 24.2605 69.3351 25.5395 69.3351H28.1127C29.3917 69.3351 30.4286 68.3271 30.4286 67.0836C30.4286 65.8401 29.3917 64.832 28.1127 64.832H25.5395Z" fill="#666666"/>
<path d="M22.8505 58.2406C22.8505 60.3744 21.5617 62.1042 19.9719 62.1042C18.3821 62.1042 17.0933 60.3744 17.0933 58.2406C17.0933 56.1067 18.3821 54.377 19.9719 54.377C21.5617 54.377 22.8505 56.1067 22.8505 58.2406Z" fill="white"/>
<path fill-rule="evenodd" clip-rule="evenodd" d="M20.3611 53.5238C20.9519 53.6287 21.3457 53.8828 21.5742 54.1006C21.8583 54.3714 21.821 54.7931 21.4907 55.0425C21.1604 55.2918 20.6623 55.2745 20.3782 55.0037C20.3293 54.9571 20.2094 54.8684 19.9868 54.8288C19.7669 54.7897 19.3773 54.7865 18.7595 55.0078C18.0818 55.2507 17.6861 55.6638 17.4855 56.2186C17.2749 56.8014 17.2793 57.5553 17.4969 58.407C17.7211 59.2849 18.0451 60.0594 18.4698 60.6066C18.8911 61.1496 19.3454 61.3924 19.8341 61.4113C20.5177 61.4376 20.8372 61.135 21.2396 60.7538C21.3438 60.6551 21.4536 60.5511 21.5767 60.4462C21.8886 60.1803 22.388 60.1713 22.6922 60.426C22.9964 60.6807 22.9902 61.1026 22.6784 61.3685C22.6483 61.394 22.6069 61.4361 22.5539 61.49C22.1866 61.8633 21.262 62.8029 19.7091 62.7431C18.5494 62.6983 17.7143 62.1017 17.1416 61.3637C16.5721 60.63 16.1973 59.6819 15.9541 58.7301C15.7042 57.752 15.6595 56.7499 15.9779 55.869C16.3064 54.96 17.0179 54.2015 18.1856 53.7831C19.0441 53.4755 19.7677 53.4183 20.3611 53.5238Z" fill="#666666"/>
<path fill-rule="evenodd" clip-rule="evenodd" d="M20.4045 53.2778C21.0467 53.3919 21.4846 53.6703 21.7466 53.92C22.1544 54.3085 22.0815 54.91 21.6417 55.2421C21.222 55.5591 20.5861 55.5469 20.2059 55.1846C20.1908 55.1702 20.1152 55.1055 19.9436 55.075C19.7744 55.045 19.4294 55.0336 18.8444 55.2433C18.2323 55.4626 17.8945 55.8234 17.7208 56.3041C17.533 56.8238 17.529 57.5229 17.7392 58.3457C17.9591 59.2064 18.2719 59.9443 18.6673 60.4538C19.0546 60.9529 19.4452 61.1463 19.8434 61.1616C20.1419 61.1732 20.3469 61.1136 20.5204 61.0171C20.7037 60.9151 20.8615 60.7674 21.0675 60.5723L21.0692 60.5707C21.1725 60.4729 21.2862 60.3651 21.4143 60.2559C21.8141 59.9152 22.45 59.8975 22.8526 60.2346C23.06 60.4083 23.1701 60.6482 23.1664 60.8974C23.1628 61.1456 23.0468 61.3834 22.8409 61.5589C22.8213 61.5756 22.7893 61.6077 22.7324 61.6656L22.7291 61.669C22.3544 62.0498 21.3633 63.0571 19.7 62.9929C18.4485 62.9447 17.5501 62.2976 16.9442 61.5168C16.3455 60.7454 15.9595 59.7607 15.7119 58.7916C15.4547 57.7846 15.4016 56.7278 15.7428 55.7838C16.098 54.801 16.8673 53.99 18.1009 53.5479C18.992 53.2286 19.7601 53.1633 20.4045 53.2778ZM21.5743 54.1007C21.3458 53.8829 20.952 53.6289 20.3612 53.5239C19.7678 53.4185 19.0442 53.4756 18.1857 53.7832C17.018 54.2017 16.3065 54.9602 15.978 55.8691C15.6596 56.75 15.7043 57.7521 15.9542 58.7302C16.1973 59.682 16.5722 60.6301 17.1417 61.3639C17.7144 62.1019 18.5495 62.6985 19.7092 62.7432C21.2621 62.8031 22.1866 61.8634 22.554 61.4901C22.607 61.4363 22.6484 61.3942 22.6784 61.3686C22.9903 61.1028 22.9965 60.6808 22.6923 60.4261C22.3881 60.1714 21.8887 60.1805 21.5768 60.4463C21.4537 60.5512 21.3439 60.6552 21.2397 60.7539C20.8372 61.1352 20.5178 61.4378 19.8342 61.4114C19.3455 61.3926 18.8912 61.1498 18.4698 60.6068C18.0452 60.0596 17.7212 59.2851 17.4969 58.4071C17.2794 57.5554 17.275 56.8015 17.4856 56.2187C17.6861 55.664 18.0819 55.2508 18.7596 55.008C19.3774 54.7866 19.7669 54.7899 19.9869 54.8289C20.2095 54.8685 20.3294 54.9573 20.3783 55.0038C20.6624 55.2746 21.1605 55.292 21.4908 55.0426C21.821 54.7932 21.8584 54.3715 21.5743 54.1007Z" fill="#666666"/>
<path fill-rule="evenodd" clip-rule="evenodd" d="M38.0508 70.2305C38.465 70.2305 38.8008 70.5663 38.8008 70.9805V75.4805C38.8008 75.8947 38.465 76.2305 38.0508 76.2305C37.6366 76.2305 37.3008 75.8947 37.3008 75.4805V70.9805C37.3008 70.5663 37.6366 70.2305 38.0508 70.2305Z" fill="#666666"/>
<path fill-rule="evenodd" clip-rule="evenodd" d="M31.0508 70.2305C31.465 70.2305 31.8008 70.5663 31.8008 70.9805V74.9805C31.8008 75.3947 31.465 75.7305 31.0508 75.7305C30.6366 75.7305 30.3008 75.3947 30.3008 74.9805V70.9805C30.3008 70.5663 30.6366 70.2305 31.0508 70.2305Z" fill="#666666"/>
<path d="M102.096 58.2324H66.7425C64.4998 58.2324 62.6816 60.2039 62.6816 62.6358V83.4381C62.6816 85.87 64.4998 87.8414 66.7425 87.8414H102.096C104.339 87.8414 106.157 85.87 106.157 83.4381V62.6358C106.157 60.2039 104.339 58.2324 102.096 58.2324Z" fill="#FDFFFA"/>
<path opacity="0.4" d="M106.137 81.1565V81.795C107.087 86.0479 106.055 87.7508 101.704 87.7508H69.089H65.2892C64.209 87.6471 64.5067 86.738 63.389 86.6155L62.8487 84.6765L62.8486 79.2363C63.2612 79.3306 63.6962 79.4295 64.1688 79.5308C67.3568 80.2212 73.3201 80.7583 79.6435 81.3167C85.7875 81.8425 92.1257 82.1111 98.4936 82.1154C104.104 82.1154 103.782 82.1649 105.627 81.9552C105.627 81.9552 106.107 81.795 106.137 81.795C106.422 81.7644 107.361 82.4819 106.306 82.6421C107.018 83.3324 105.447 81.1141 106.137 81.1565Z" fill="#8CC63E" fill-opacity="0.3"/>
<path d="M63.0508 58.9805H106.051V61.9805H63.0508V58.9805Z" fill="#8CC63E" fill-opacity="0.2"/>
<path d="M103.756 57.5879H65.4891C63.5942 57.5879 62.0508 59.6455 62.0508 62.1735V84.2091C62.0508 86.7405 63.5942 88.7947 65.4891 88.7947H103.756C105.654 88.7947 107.194 86.7405 107.194 84.2091V62.1735C107.194 59.6455 105.654 57.5879 103.756 57.5879ZM104.65 86.6921C104.473 86.8055 104.278 86.8863 104.074 86.9307C103.97 86.9498 103.865 86.9602 103.759 86.9618H65.4891C65.2035 86.9525 64.9238 86.8753 64.6718 86.7361C64.4198 86.597 64.2023 86.3996 64.0361 86.1595C63.6335 85.5964 63.4207 84.9125 63.4301 84.2126V62.1735C63.4301 60.6588 64.3575 59.4242 65.4925 59.4242H103.759C103.865 59.4241 103.97 59.4345 104.074 59.4553C105.058 59.6594 105.818 60.8006 105.818 62.1735V84.2091C105.837 84.6892 105.741 85.1668 105.538 85.5993C105.336 86.0319 105.033 86.406 104.657 86.6886L104.65 86.6921Z" fill="#666666"/>
<path d="M88.3826 83.009V94.2481H80.3877V83.009C80.3877 82.3358 80.6466 81.6902 81.1074 81.2142C81.5683 80.7381 82.1933 80.4707 82.8451 80.4707H85.9252C86.3312 80.4705 86.7309 80.5743 87.0885 80.7729C87.446 80.9714 87.7504 81.2585 87.9741 81.6084C88.2426 82.0227 88.3848 82.5105 88.3826 83.009Z" fill="#666666"/>
<path d="M92.3902 93.6328H75.8154C75.5207 93.6328 75.2817 94.0637 75.2817 94.5953V94.6014C75.2817 95.1329 75.5207 95.5638 75.8154 95.5638H92.3902C92.685 95.5638 92.9239 95.1329 92.9239 94.6014V94.5953C92.9239 94.0637 92.685 93.6328 92.3902 93.6328Z" fill="#666666"/>
<path d="M84.4436 92.435C85.3274 92.435 86.0439 91.6949 86.0439 90.7819C86.0439 89.869 85.3274 89.1289 84.4436 89.1289C83.5597 89.1289 82.8433 89.869 82.8433 90.7819C82.8433 91.6949 83.5597 92.435 84.4436 92.435Z" fill="white"/>
<path fill-rule="evenodd" clip-rule="evenodd" d="M12.0508 95.9805C12.0508 95.4282 12.4985 94.9805 13.0508 94.9805H106.051C106.603 94.9805 107.051 95.4282 107.051 95.9805C107.051 96.5328 106.603 96.9805 106.051 96.9805H13.0508C12.4985 96.9805 12.0508 96.5328 12.0508 95.9805Z" fill="#666666"/>
<path d="M50.4832 84.4382C50.0878 84.1346 49.4905 83.9828 48.7063 83.9828H46.6544L45.8895 88.6142H43.2017L43.3757 87.5632H44.9936L45.1869 86.3837H43.5669L43.741 85.3374H45.4082L45.6231 83.9805H42.2434L41.515 88.3759H40.271L41.0015 83.9828H39.2289L38.507 88.3759H37.2974L38.0257 83.9828H36.2575L35.499 88.6142H32.7918L32.9616 87.5632H34.588L34.7814 86.3954H33.1571L33.329 85.3468H35.0156L35.2305 83.9898H24.6745L24.0729 87.6589L22.8783 83.9898H21.0391L20.0508 89.9805H21.8062L22.4035 86.2086L23.5658 89.9805H29.8547L30.6196 85.3468H31.6015L30.8366 89.9735H47.3806L47.8598 87.047L48.6354 89.9735H50.3908L49.5915 87.5912L49.7763 87.5468C50.1485 87.471 50.4828 87.2511 50.7174 86.9279C50.9474 86.5762 51.0637 86.1516 51.0482 85.7204C51.0623 85.4732 51.0175 85.2261 50.9182 85.0032C50.8188 84.7802 50.6683 84.5888 50.481 84.4476L50.4832 84.4382ZM28.3271 88.6142H25.6414L25.8154 87.5632H27.4999L27.6911 86.3791H26.0217L26.1828 85.3397H28.8642L28.3271 88.6095V88.6142ZM49.035 86.5963C48.8003 86.7513 48.5269 86.8232 48.253 86.8018H47.907L48.1735 85.1949H48.427C48.6512 85.1788 48.875 85.2331 49.0716 85.3514C49.1541 85.4136 49.2206 85.4979 49.2646 85.596C49.3086 85.6942 49.3287 85.8029 49.3229 85.912C49.3299 86.0434 49.3068 86.1746 49.2558 86.294C49.2049 86.4134 49.1275 86.5172 49.0307 86.5963H49.035Z" fill="#8CC63E"/>
<path fill-rule="evenodd" clip-rule="evenodd" d="M41.7133 78.9302C40.6051 80.4078 38.4838 81.7302 34.5508 81.7302C28.7481 81.7302 26.3008 78.3432 26.3008 75.9802H27.8008C27.8008 77.308 29.3534 80.2302 34.5508 80.2302C38.1178 80.2302 39.7465 79.0525 40.5133 78.0302C40.9097 77.5017 41.1075 76.9736 41.206 76.5795C41.2551 76.3829 41.2789 76.2221 41.2904 76.1151C41.2961 76.0618 41.2987 76.0222 41.2999 75.9989C41.3005 75.9872 41.3007 75.9796 41.3008 75.9764C41.3008 75.9748 41.3008 75.9742 41.3008 75.9749L41.3008 75.9766L41.3008 75.9782L41.3008 75.9791C41.3008 75.9796 41.3008 75.9802 42.0508 75.9802C42.8008 75.9802 42.8008 75.9807 42.8008 75.9813L42.8008 75.9826L42.8008 75.9855L42.8007 75.9927L42.8003 76.0127C42.8 76.0283 42.7993 76.0488 42.798 76.0738C42.7955 76.1236 42.7908 76.1915 42.7819 76.2749C42.764 76.4414 42.7292 76.6712 42.6612 76.9433C42.5253 77.4868 42.2544 78.2087 41.7133 78.9302Z" fill="#666666"/>
<path fill-rule="evenodd" clip-rule="evenodd" d="M83.2173 40.3965L83.2173 43.1465L80.2173 43.1465L80.2173 40.3965L83.2173 40.3965Z" fill="#F3F9EC"/>
<path fill-rule="evenodd" clip-rule="evenodd" d="M89.0508 34.8965L89.0508 37.6465L86.0508 37.6465L86.0508 34.8965L89.0508 34.8965Z" fill="#F3F9EC"/>
<g clip-path="url(#clip0)">
<path d="M74.3693 33.5228C74.3693 33.2696 73.9591 33.0645 73.4529 33.0645H62.391C61.8848 33.0645 61.4746 33.2696 61.4746 33.5228C61.4746 33.7758 61.8848 33.9811 62.391 33.9811H73.4529C73.9591 33.9811 74.3693 33.7758 74.3693 33.5228Z" fill="#9FD6E2"/>
<path fill-rule="evenodd" clip-rule="evenodd" d="M74.2349 32.9296C74.4326 33.0285 74.6691 33.2206 74.6691 33.522C74.6691 33.8233 74.4326 34.0155 74.2349 34.1144C74.0192 34.2222 73.7422 34.2803 73.4527 34.2803H62.3907C62.1011 34.2803 61.8242 34.2222 61.6085 34.1144C61.4108 34.0155 61.1743 33.8233 61.1743 33.522C61.1743 33.2206 61.4107 33.0285 61.6085 32.9296C61.8242 32.8217 62.1012 32.7637 62.3907 32.7637H73.4527C73.7422 32.7637 74.0192 32.8217 74.2349 32.9296ZM73.4527 33.0637C73.9588 33.0637 74.3691 33.2688 74.3691 33.522C74.3691 33.775 73.9588 33.9803 73.4527 33.9803H62.3907C61.8845 33.9803 61.4743 33.775 61.4743 33.522C61.4743 33.2688 61.8845 33.0637 62.3907 33.0637H73.4527Z" fill="#9FD6E2"/>
<path d="M79.2206 33.0645H76.8865C76.5138 33.0645 76.2114 33.2696 76.2114 33.5228C76.2114 33.7758 76.5138 33.9811 76.8865 33.9811H79.2206C79.5934 33.9811 79.8956 33.7758 79.8956 33.5228C79.8956 33.2696 79.5934 33.0645 79.2206 33.0645Z" fill="#9FD6E2"/>
<path fill-rule="evenodd" clip-rule="evenodd" d="M76.8867 32.7637H79.2208C79.4593 32.7637 79.6885 32.8288 79.8666 32.9497C80.0431 33.0695 80.1958 33.2665 80.1958 33.522C80.1958 33.7775 80.0431 33.9744 79.8667 34.0942C79.6886 34.2152 79.4593 34.2803 79.2208 34.2803H76.8867C76.6482 34.2803 76.419 34.2152 76.2409 34.0943C76.0644 33.9745 75.9116 33.7776 75.9116 33.522C75.9116 33.2664 76.0644 33.0695 76.2409 32.9497C76.419 32.8288 76.6483 32.7637 76.8867 32.7637ZM76.8867 33.0637H79.2208C79.5936 33.0637 79.8958 33.2688 79.8958 33.522C79.8958 33.775 79.5936 33.9803 79.2208 33.9803H76.8867C76.514 33.9803 76.2116 33.775 76.2116 33.522C76.2116 33.2688 76.514 33.0637 76.8867 33.0637Z" fill="#9FD6E2"/>
<path d="M79.1757 37.6465H70.4842C70.0865 37.6465 69.7642 37.8517 69.7642 38.1048C69.7642 38.358 70.0865 38.5632 70.4842 38.5632H79.1757C79.5734 38.5632 79.8957 38.358 79.8957 38.1048C79.8957 37.8517 79.5734 37.6465 79.1757 37.6465Z" fill="#9FD6E2"/>
<path fill-rule="evenodd" clip-rule="evenodd" d="M70.4839 37.3477H79.1754C79.4225 37.3477 79.6603 37.4108 79.8457 37.5288C80.0275 37.6446 80.1954 37.8413 80.1954 38.106C80.1954 38.3707 80.0275 38.5674 79.8457 38.6832C79.6603 38.8012 79.4225 38.8643 79.1754 38.8643H70.4839C70.2368 38.8643 69.999 38.8012 69.8136 38.6832C69.6318 38.5674 69.4639 38.3707 69.4639 38.106C69.4639 37.8413 69.6318 37.6446 69.8136 37.5288C69.999 37.4108 70.2368 37.3477 70.4839 37.3477ZM70.4839 37.6477H79.1754C79.5731 37.6477 79.8954 37.8528 79.8954 38.106C79.8954 38.3591 79.5731 38.5643 79.1754 38.5643H70.4839C70.0862 38.5643 69.7639 38.3591 69.7639 38.106C69.7639 37.8528 70.0862 37.6477 70.4839 37.6477Z" fill="#9FD6E2"/>
<path d="M65.9883 37.6465H62.4872C61.9282 37.6465 61.4746 37.8517 61.4746 38.1048C61.4746 38.358 61.9282 38.5632 62.4872 38.5632H65.9883C66.5476 38.5632 67.0009 38.358 67.0009 38.1048C67.0009 37.8517 66.5476 37.6465 65.9883 37.6465Z" fill="#9FD6E2"/>
<path fill-rule="evenodd" clip-rule="evenodd" d="M62.4869 37.3477H65.988C66.3003 37.3477 66.5974 37.4043 66.8278 37.5086C67.0306 37.6004 67.3006 37.7888 67.3006 38.106C67.3006 38.4232 67.0306 38.6116 66.8278 38.7034C66.5974 38.8077 66.3003 38.8643 65.988 38.8643H62.4869C62.1748 38.8643 61.8776 38.8077 61.6473 38.7034C61.4445 38.6116 61.1743 38.4233 61.1743 38.106C61.1743 37.7887 61.4445 37.6003 61.6473 37.5086C61.8776 37.4043 62.1748 37.3477 62.4869 37.3477ZM62.4869 37.6477H65.988C66.5473 37.6477 67.0006 37.8528 67.0006 38.106C67.0006 38.3591 66.5473 38.5643 65.988 38.5643H62.4869C61.9279 38.5643 61.4743 38.3591 61.4743 38.106C61.4743 37.8528 61.9279 37.6477 62.4869 37.6477Z" fill="#9FD6E2"/>
<path d="M79.236 25.1836H62.0322C58.734 25.1836 56.0508 27.7135 56.0508 30.8232V39.8975C56.0508 43.0072 58.734 45.5371 62.0322 45.5371H62.9199L65.0003 48.0256C65.1622 48.2195 65.4097 48.3326 65.6714 48.3326C65.9331 48.3326 66.1805 48.2195 66.3425 48.0256L68.4229 45.5371H79.236C82.5343 45.5371 85.2174 43.0072 85.2174 39.8975V30.8232C85.2174 27.7135 82.5343 25.1836 79.236 25.1836V25.1836ZM83.5085 39.8975C83.5085 42.1187 81.5919 43.9258 79.236 43.9258H68.0083C67.7466 43.9258 67.4994 44.0389 67.3374 44.2327L65.6714 46.2255L64.0056 44.2327C63.8436 44.0389 63.5961 43.9258 63.3344 43.9258H62.0322C59.6764 43.9258 57.7598 42.1187 57.7598 39.8975V30.8232C57.7598 28.602 59.6764 26.7949 62.0322 26.7949H79.236C81.5919 26.7949 83.5085 28.602 83.5085 30.8232V39.8975Z" fill="#9FD6E2"/>
<path fill-rule="evenodd" clip-rule="evenodd" d="M86.1064 37.9805L86.1064 40.8555L83.1064 40.8555L83.1064 37.9805L86.1064 37.9805Z" fill="#F3F9EC"/>
</g>
<path d="M81.831 51.9805C81.5371 51.9812 81.2635 51.8618 81.1065 51.6647C81.1041 51.6619 81.1019 51.6592 81.0998 51.6563L78.6663 48.4588H75.592C75.293 48.4588 75.0508 48.2665 75.0508 48.0292C75.0508 47.7921 75.293 47.5996 75.592 47.5996H78.9716C79.161 47.5996 79.3368 47.6782 79.4349 47.807L81.8316 50.9554L84.2282 47.807C84.3261 47.6782 84.5019 47.5996 84.6912 47.5996H91.1902C92.1717 47.5989 92.9672 46.9674 92.9684 46.1881V36.2512C92.9675 35.4721 92.1717 34.8406 91.1902 34.8397H87.3246C87.0257 34.8397 86.7835 34.6474 86.7835 34.4101C86.7835 34.173 87.0257 33.9805 87.3246 33.9805H91.1902C92.7694 33.9819 94.049 34.9976 94.0508 36.2512V46.1883C94.049 47.4419 92.7694 48.4576 91.1902 48.4591H84.9959L82.5621 51.6566C82.5603 51.6595 82.5579 51.6621 82.5558 51.665C82.3984 51.862 82.1248 51.9812 81.831 51.9805Z" fill="#9FD6E2"/>
<line x1="78.9945" y1="77.0393" x2="87.5186" y2="67.0365" stroke="#8CC63E" stroke-opacity="0.2" stroke-linecap="round"/>
<line x1="83.9824" y1="76.7376" x2="87.8399" y2="72.0496" stroke="#8CC63E" stroke-opacity="0.2" stroke-linecap="round"/>
<defs>
<clipPath id="clip0">
<rect width="29.1667" height="27.5" fill="white" transform="translate(56.0508 22.9805)"/>
</clipPath>
</defs>
</svg>
